<svg data-morphsvg="" data-morphsvg-02="" version="1.1" xmlns="http://www.w3.org/2000/svg" xmlns:xlink="http://www.w3.org/1999/xlink" x="0px" y="0px" viewBox="0 0 341.6 291.5" xml:space="preserve">
    <path fill="#fff" class="egg" d="M297.3,41.3c-24-17.4-44.4-28.7-73.8-35.4c-7.9-1.8-14.1-3.2-22.4-4.2C191.8,0.5,182.4,0,172.7,0
        c-21.9,0-43,3-62.4,8.5c-19.4,5.4-39.1,13.3-54.7,23.1c-4.9,3.1-9.5,6.3-14,9.8c-16.8,15.2-27.4,27-35.5,50
        c-3.9,11.1-10.1,27.7-2.3,49.9c0.3,0.8,0.8,1.5,1.2,2.2c3.1,5.2,7,9.9,11.5,14.1c41.1,38.1,134.6,36.7,160.8,60.7
        c4.3,4,7.6,8.6,9.9,13.5c7.4,15.7,5.9,37-10,44.1c-14.3,6.3-24.8,8.2-50.1,3.8c-4.6-0.8-9.1,4.4-4.3,6.5c9.2,4,24.7,5.7,42.8,5.3
        c30.6-0.6,85.5-21.2,114.6-43.2c29.9-19.6,50.7-52.1,58.3-84.7c0.9-4,1.7-8,2.2-12c1.7-12.9,1-26-2.1-38.7
        C332.9,89.4,325.1,67,297.3,41.3z" id="Egg7496"></path>
    <path fill="#fff" class="circle" d="M297.3,41.3c-24-17.4-44.4-28.7-73.8-35.4c-7.9-1.8-14.1-3.2-22.4-4.2C191.8,0.5,182.4,0,172.7,0
        c-21.9,0-43,3-62.4,8.5c-19.4,5.4-39.1,13.3-54.7,23.1c-4.9,3.1-9.5,6.3-14,9.8c-16.8,15.2-27.4,27-35.5,50
        c-3.9,11.1-10.1,27.7-2.3,49.9c0.3,0.8,0.8,1.5,1.2,2.2c3.1,5.2,7,9.9,11.5,14.1c41.1,38.1,134.6,36.7,160.8,60.7
        c4.3,4,7.6,8.6,9.9,13.5c7.4,15.7,5.9,37-10,44.1c-14.3,6.3-24.8,8.2-50.1,3.8c-4.6-0.8-9.1,4.4-4.3,6.5c9.2,4,24.7,5.7,42.8,5.3
        c30.6-0.6,85.5-21.2,114.6-43.2c29.9-19.6,50.7-52.1,58.3-84.7c0.9-4,1.7-8,2.2-12c1.7-12.9,1-26-2.1-38.7
        C332.9,89.4,325.1,67,297.3,41.3z" data-svg-origin="161.1999969482422 82.49999618530273" transform="matrix(0.99026,-0.13917,0.13917,0.99026,-9.912993009142781,23.23758774173602)" style="transform-origin: 0px 0px 0px; visibility: visible;" data-original="M209.4,82.5c0,26.6-21.6,48.2-48.2,48.2s-48.2-21.6-48.2-48.2s21.6-48.2,48.2-48.2c12.8,0,24.4,5,33,13.1
        C203.6,56.2,209.4,68.6,209.4,82.5z"></path>
</svg>