<svg height="512pt" viewBox="0 -80 512.00073 512" width="512pt" xmlns="http://www.w3.org/2000/svg"><path d="m304 144 182.558594 182.5625-182.558594-182.5625-48 32-48-32-182.558594 182.5625 182.558594-182.5625-180.609375-120.304688c-7.191406 6.027344-11.363281 14.921876-11.390625 24.304688v256c0 17.671875 14.328125 32 32 32h416c17.671875 0 32-14.328125 32-32v-256c-.027344-9.382812-4.195312-18.277344-11.390625-24.304688zm0 0" fill="#bddbff"/><path d="m256 176 48-32 180.609375-120.304688c-5.734375-4.9375-13.042969-7.667968-20.609375-7.695312h-416c-7.566406.027344-14.875 2.757812-20.609375 7.695312l180.609375 120.304688zm0 0" fill="#bddbff"/><path d="m464 0h-416c-26.511719 0-48 21.492188-48 48v256c0 26.511719 21.488281 48 48 48h416c26.511719 0 48-21.488281 48-48v-256c0-26.507812-21.488281-48-48-48zm-20.703125 32-187.296875 124.800781-187.296875-124.800781zm-411.296875 265.375v-249.375c.085938-.597656.203125-1.191406.351562-1.777344l150.511719 100.289063zm22.625 22.625 155.40625-155.40625 37.089844 24.71875c5.375 3.585938 12.382812 3.585938 17.757812 0l37.089844-24.71875 155.40625 155.40625zm425.375-22.625-150.863281-150.863281 150.511719-100.285157c.148437.582032.265624 1.175782.351562 1.773438zm0 0" fill="#3d9ae2"/></svg>