<?xml version="1.0" encoding="utf-8"?>
<!-- Generator: Adobe Illustrator 23.0.3, SVG Export Plug-In . SVG Version: 6.00 Build 0)  -->
<svg version="1.1" id="圖層_1" xmlns="http://www.w3.org/2000/svg" xmlns:xlink="http://www.w3.org/1999/xlink" x="0px" y="0px"
	 viewBox="0 0 478.88 88.74" style="enable-background:new 0 0 478.88 88.74;" xml:space="preserve">
<style type="text/css">
	.st0{fill:#F3CC20;}
	.st1{fill:#F5FBFD;}
	.st2{fill:#35BDE5;}
	.st3{fill:none;}
	.st4{fill:#4F4C4B;}
</style>
<g>
	<path class="st1" d="M14.63,31.69c-4.39,0-7.95,3.56-7.95,7.95v35.79c0,4.39,3.56,7.95,7.95,7.95s7.95-3.56,7.95-7.95V39.65
		C22.58,35.26,19.02,31.69,14.63,31.69z"/>
	<circle class="st1" cx="14.63" cy="21.65" r="7.95"/>
</g>
<path class="st1" d="M34.42,18.8c0-2.81,2.12-5.16,4.92-5.47c4.94-0.54,10.64-0.85,16.53-0.85c13.35,0,22.07,2.46,28.81,7.55
	c7.31,5.46,11.9,14.04,11.9,26.48c0,13.49-4.88,22.81-11.64,28.51c-7.4,6.17-18.74,9.11-32.45,9.11c-5.27,0-9.57-0.2-13.01-0.49
	c-2.86-0.24-5.06-2.61-5.06-5.48V18.8z M50.31,66.2c0,3.03,2.46,5.5,5.49,5.5c0.02,0,0.04,0,0.06,0
	c14.41,0.12,23.88-7.84,23.88-24.66c0.03-14.62-8.53-22.31-22.21-22.31c-0.7,0-1.36,0.01-1.97,0.03c-2.94,0.1-5.25,2.55-5.25,5.49
	V66.2z"/>
<path class="st1" d="M140.43,53.63h-13.94c-3.04,0-5.5,2.46-5.5,5.5v5.74c0,3.04,2.46,5.5,5.5,5.5h16.93c3.6,0,6.52,2.92,6.52,6.52
	v0c0,3.6-2.92,6.52-6.52,6.52h-27.75c-5.85,0-10.58-4.74-10.58-10.58v-49.2c0-5.85,4.74-10.58,10.58-10.58h26.25
	c3.6,0,6.52,2.92,6.52,6.52v0c0,3.6-2.92,6.52-6.52,6.52h-15.43c-3.04,0-5.5,2.46-5.5,5.5v3.66c0,3.04,2.46,5.5,5.5,5.5h13.94
	c3.56,0,6.45,2.89,6.45,6.45v0C146.89,50.74,144,53.63,140.43,53.63z"/>
<path class="st1" d="M213.64,72.82l-15.41-49.49c-1.6-5.13-5.81-9.16-11.1-10.08c-7.18-1.25-13.93,3.05-15.98,9.77l-15.27,50.02
	c-1.42,4.66,1.28,9.49,6.09,10.26c4.01,0.64,7.73-1.84,8.77-5.62l2.27-8.27c0.66-2.41,2.85-4.07,5.34-4.07h11.88
	c2.45,0,4.61,1.61,5.31,3.95l2.4,8.02c1.05,3.51,4.21,6.09,7.87,6.1C211.34,83.41,215.27,78.08,213.64,72.82z M188.61,41.86l1.2,4.1
	c1.1,3.75-1.71,7.51-5.63,7.51h0c-3.89,0-6.7-3.71-5.64-7.45l1.16-4.12c0.56-1.99,2.38-3.37,4.45-3.38l0,0
	C186.22,38.53,188.03,39.88,188.61,41.86z"/>
<path class="st2" d="M223.09,74.48c0.92-3.76,4.81-5.91,8.52-4.79c3.33,1.01,7.11,1.7,10.96,1.7c7.31,0,11.18-3.03,11.18-7.66
	c0-4.32-3.36-6.87-11.78-9.84c-11.74-4.16-19.41-10.56-19.41-20.84c0-12,10.07-21.12,26.62-21.12c4.59,0,8.46,0.52,11.7,1.33
	c3.54,0.89,5.62,4.58,4.64,8.11v0c-0.95,3.46-4.5,5.54-7.97,4.63c-2.42-0.64-5.31-1.11-8.61-1.11c-6.93,0-10.24,3.21-10.24,6.81
	c0,4.47,3.9,6.45,13.03,9.89c12.46,4.66,18.23,11.12,18.23,21.07c0,11.75-9,21.83-28.37,21.83c-4.97,0-9.94-0.84-13.93-2.01
	C224.24,81.48,222.24,77.94,223.09,74.48L223.09,74.48z"/>
<path class="st2" d="M428.83,69.37l-2.28,8.31c-0.93,3.38-4,5.72-7.51,5.72l0,0c-5.23,0-8.97-5.06-7.45-10.06l15.36-50.32
	c1.81-5.93,7.29-9.99,13.49-9.99h0c6.17,0,11.63,4.02,13.47,9.91l15.53,49.88c1.63,5.25-2.29,10.57-7.78,10.57l0,0
	c-3.6,0-6.78-2.36-7.81-5.81l-2.5-8.34c-0.7-2.33-2.84-3.92-5.27-3.92h-11.95C431.65,65.33,429.48,66.98,428.83,69.37z
	 M435.51,41.91l-1.16,4.12c-1.05,3.74,1.76,7.45,5.64,7.45h0c3.91,0,6.73-3.76,5.63-7.51l-1.2-4.1c-0.58-1.98-2.4-3.33-4.46-3.33
	l0,0C437.88,38.54,436.07,39.91,435.51,41.91z"/>
<g>
	<path class="st3" d="M370.75,24.73c-0.7,0-1.36,0.01-1.97,0.03c-2.94,0.1-5.25,2.55-5.25,5.49v18.58c1.29,1.02,2.6,2.68,4.47,2.68
		c3.21,0,3.21-3.36,6.42-3.36c3.21,0,3.21,3.36,6.42,3.36c3.21,0,3.21-3.36,6.42-3.36s2.84,1.16,5.44,3.04
		c0.01,0.01,0.01,0.01,0.02,0.01c0.14-1.33,0.24-2.71,0.24-4.17C392.99,32.41,384.43,24.73,370.75,24.73z"/>
	<path class="st2" d="M307.74,11.88c-20.72,0-34.25,15.78-34.25,36.81c0,20.07,12.28,35.85,33.14,35.85
		c20.57,0,34.51-13.95,34.51-37.04C341.14,28.04,329.34,11.88,307.74,11.88z M303.23,27.9c0-2.09,1.69-3.78,3.78-3.78
		s3.78,1.69,3.78,3.78v0.82l-2.58,2.23l2.58,2.23v3.73c0,2.09-1.69,3.78-3.78,3.78s-3.78-1.69-3.78-3.78V27.9z M292.75,28.72
		l-2.58,2.23l2.58,2.23v3.73c0,2.09-1.69,3.78-3.78,3.78c-2.09,0-3.78-1.69-3.78-3.78V27.9c0-2.09,1.69-3.78,3.78-3.78
		c2.09,0,3.78,1.69,3.78,3.78V28.72z M314.94,44.53c-0.84,1.63-2.2,3.08-4.02,4.3c-1.88,1.3-4.25,1.99-7.03,2.05
		c-2.8-0.06-5.16-0.76-7.04-2.07c-0.61-0.43-0.76-1.27-0.34-1.88c0.42-0.61,1.27-0.76,1.88-0.34c1.44,1,3.29,1.53,5.5,1.58
		c2.19-0.05,4.05-0.59,5.5-1.59c1.47-0.99,2.54-2.12,3.17-3.36l0.08-0.13c0.44-0.63,0.73-1.47,0.9-2.54
		c0.11-0.73,0.81-1.23,1.54-1.12c0.36,0.06,0.68,0.25,0.89,0.54s0.3,0.65,0.24,1.01C315.99,42.41,315.56,43.61,314.94,44.53z"/>
	<path class="st2" d="M397.9,20.03c-6.74-5.09-15.46-7.55-28.81-7.55c-5.89,0-11.59,0.31-16.53,0.85c-2.8,0.31-4.92,2.65-4.92,5.47
		v59.36c0,2.87,2.2,5.24,5.06,5.48c3.44,0.29,7.74,0.49,13.01,0.49c13.72,0,25.05-2.94,32.45-9.11c6.76-5.7,11.64-15.02,11.64-28.51
		C409.8,34.07,405.21,25.49,397.9,20.03z M361.08,60.28c0-2.85,2.31-5.15,5.15-5.15s5.15,2.31,5.15,5.15c0,2.85-2.31,5.15-5.15,5.15
		S361.08,63.13,361.08,60.28z M367.13,76.86c-1.1,0-1.99-0.89-1.99-1.99s0.89-1.99,1.99-1.99s1.99,0.89,1.99,1.99
		S368.23,76.86,367.13,76.86z M372.01,72.16c-1.6,0-2.89-1.29-2.89-2.89s1.29-2.89,2.89-2.89s2.89,1.29,2.89,2.89
		S373.61,72.16,372.01,72.16z M392.72,51.21c-0.01-0.01-0.01-0.01-0.02-0.01c-2.6-1.88-2.23-3.04-5.44-3.04s-3.21,3.36-6.42,3.36
		c-3.21,0-3.21-3.36-6.42-3.36c-3.21,0-3.21,3.36-6.42,3.36c-1.86,0-3.18-1.65-4.47-2.68V30.25c0-2.94,2.31-5.39,5.25-5.49
		c0.61-0.02,1.27-0.03,1.97-0.03c13.68,0,22.24,7.69,22.21,22.31C392.96,48.5,392.86,49.87,392.72,51.21z"/>
</g>
</svg>
