<svg data-morphsvg="" version="1.1" xmlns="http://www.w3.org/2000/svg" xmlns:xlink="http://www.w3.org/1999/xlink" x="0px" y="0px" viewBox="0 0 348.2 267.6" xml:space="preserve">
    <path fill="#fff" class="egg" d="M26.4,187.8c20.2,11.6,46.4,7.7,67.1,18.5c13,6.8,22.4,18.8,32.7,29.3c11.8,12.1,25.4,23,41.3,28.4
        c16,5.5,34.6,4.9,48.7-4.3c8.8-5.8,15.2-14.4,23.6-20.8c18.3-14,43.2-15.4,66.1-13.3c8.2,0.7,16.6,1.8,24.7-0.1
        c4-0.9,7.9-2.8,11-5.5c3.2-2.7,5.5-6.2,6.3-10.3c1.8-9.3-5.1-18.3-13.1-23.5c-8-5.1-17.2-8.8-26.5-15.4c-9.2-6.7-10.8-15.8-9.4-25.2
        c1.4-9.4,6-18,9.3-26.9c3.3-8.9,5.3-19,1.6-27.8c-5.4-12.6-20.6-18.2-27.3-30.1c-7.1-12.8-2.7-29.5-9.3-42.5
        C267.3,6.1,252.7,0,239.1,0c-13.6,0-26.8,4.8-39.7,9.3c-12.9,4.5-26.3,8.8-39.9,7.5C139.7,15,120.8,1.7,101.5,6.4
        c-12.5,3.1-22,13.2-29,24.1c-0.2,0.3-0.4,0.6-0.6,0.9C65.2,42,60,53.6,52.1,63.2c-0.5,0.6-1,1.2-1.5,1.7
        C42,74.8,30.5,81.9,21.2,91.2c-3.9,3.9-7.3,8.2-10.3,12.9C3.8,115.3-0.3,128.2,0,141.4C0.4,160,10.3,178.6,26.4,187.8z" id="Egg1382"></path>
    <path fill="#fff" class="circle" d="M26.4,187.8c20.2,11.6,46.4,7.7,67.1,18.5c13,6.8,22.4,18.8,32.7,29.3c11.8,12.1,25.4,23,41.3,28.4
        c16,5.5,34.6,4.9,48.7-4.3c8.8-5.8,15.2-14.4,23.6-20.8c18.3-14,43.2-15.4,66.1-13.3c8.2,0.7,16.6,1.8,24.7-0.1
        c4-0.9,7.9-2.8,11-5.5c3.2-2.7,5.5-6.2,6.3-10.3c1.8-9.3-5.1-18.3-13.1-23.5c-8-5.1-17.2-8.8-26.5-15.4c-9.2-6.7-10.8-15.8-9.4-25.2
        c1.4-9.4,6-18,9.3-26.9c3.3-8.9,5.3-19,1.6-27.8c-5.4-12.6-20.6-18.2-27.3-30.1c-7.1-12.8-2.7-29.5-9.3-42.5
        C267.3,6.1,252.7,0,239.1,0c-13.6,0-26.8,4.8-39.7,9.3c-12.9,4.5-26.3,8.8-39.9,7.5C139.7,15,120.8,1.7,101.5,6.4
        c-12.5,3.1-22,13.2-29,24.1c-0.2,0.3-0.4,0.6-0.6,0.9C65.2,42,60,53.6,52.1,63.2c-0.5,0.6-1,1.2-1.5,1.7
        C42,74.8,30.5,81.9,21.2,91.2c-3.9,3.9-7.3,8.2-10.3,12.9C3.8,115.3-0.3,128.2,0,141.4C0.4,160,10.3,178.6,26.4,187.8z" data-svg-origin="175.1999969482422 134.5" transform="matrix(0.99803,-0.06268,0.06268,0.99803,-8.086701695836155,11.247109442338484)" style="transform-origin: 0px 0px 0px; visibility: visible;" data-original="M223.4,134.5c0,26.6-21.6,48.2-48.2,48.2s-48.2-21.6-48.2-48.2s21.6-48.2,48.2-48.2c12.8,0,24.4,5,33,13.1
        C217.6,108.2,223.4,120.6,223.4,134.5z"></path>
</svg>