<?xml version="1.0" standalone="no"?>
<!DOCTYPE svg PUBLIC "-//W3C//DTD SVG 20010904//EN"
 "http://www.w3.org/TR/2001/REC-SVG-20010904/DTD/svg10.dtd">
<svg version="1.0" xmlns="http://www.w3.org/2000/svg"
 width="342.000000pt" height="342.000000pt" viewBox="0 0 342.000000 342.000000"
 preserveAspectRatio="xMidYMid meet">
<metadata>
Created by potrace 1.11, written by Peter Selinger 2001-2013
</metadata>
<g transform="translate(0.000000,342.000000) scale(0.100000,-0.100000)"
fill="#000000" stroke="none">
<path d="M0 1710 l0 -1710 1710 0 1710 0 0 1710 0 1710 -1710 0 -1710 0 0
-1710z m855 1001 c75 -35 116 -97 130 -197 l6 -51 -73 -63 c-40 -35 -77 -67
-81 -71 -5 -3 29 -37 74 -75 l81 -69 -4 -135 c-6 -158 -20 -203 -81 -255 -117
-100 -288 -61 -353 80 -23 49 -24 56 -24 356 0 251 3 314 16 351 17 50 63 102
116 130 44 24 140 23 193 -1z m1083 0 c84 -43 132 -118 132 -206 0 -50 -1 -50
-75 -114 -41 -35 -75 -66 -74 -70 0 -3 34 -35 75 -70 l74 -63 0 -137 c0 -110
-4 -144 -19 -176 -74 -164 -301 -182 -398 -32 l-28 42 -3 338 c-3 332 -2 339
19 382 26 52 49 75 104 104 52 27 141 28 193 2z m429 -916 c75 -53 -11 -286
-162 -440 -154 -157 -322 -226 -550 -226 -125 0 -228 21 -327 68 -101 47 -133
80 -125 128 13 82 55 91 164 35 307 -156 677 -42 827 257 14 27 30 73 36 100
6 28 20 60 31 72 24 25 75 28 106 6z"/>
</g>
</svg>
